# MagicaVoxel @ ephtracy

# material
mtllib block01.mtl
usemtl palette

# normals
vn -1 0 0
vn 1 0 0
vn 0 0 1
vn 0 0 -1
vn 0 -1 0
vn 0 1 0

# texcoords
vt 0.0136719 0.5
vt 0.341797 0.5

# verts
v -9.5 0 13.5
v -9.5 0 -1.5
v -9.5 4 13.5
v -9.5 4 -1.5
v -8.5 0 14.5
v -8.5 0 13.5
v -8.5 0 -1.5
v -8.5 0 -2.5
v -8.5 4 14.5
v -8.5 4 13.5
v -8.5 4 12.5
v -8.5 4 -0.5
v -8.5 4 -1.5
v -8.5 4 -2.5
v -8.5 5 12.5
v -8.5 5 -0.5
v -7.5 4 13.5
v -7.5 4 12.5
v -7.5 4 -0.5
v -7.5 4 -1.5
v -7.5 5 13.5
v -7.5 5 12.5
v -7.5 5 -0.5
v -7.5 5 -1.5
v 7.5 4 13.5
v 7.5 4 12.5
v 7.5 4 -0.5
v 7.5 4 -1.5
v 7.5 5 13.5
v 7.5 5 12.5
v 7.5 5 -0.5
v 7.5 5 -1.5
v 8.5 0 14.5
v 8.5 0 13.5
v 8.5 0 -1.5
v 8.5 0 -2.5
v 8.5 4 14.5
v 8.5 4 13.5
v 8.5 4 12.5
v 8.5 4 -0.5
v 8.5 4 -1.5
v 8.5 4 -2.5
v 8.5 5 12.5
v 8.5 5 -0.5
v 9.5 0 13.5
v 9.5 0 -1.5
v 9.5 4 13.5
v 9.5 4 -1.5
v -8.5 0 14.5
v -8.5 4 14.5
v 8.5 0 14.5
v 8.5 4 14.5
v -9.5 0 13.5
v -9.5 4 13.5
v -8.5 0 13.5
v -8.5 4 13.5
v -7.5 4 13.5
v -7.5 5 13.5
v 7.5 4 13.5
v 7.5 5 13.5
v 8.5 0 13.5
v 8.5 4 13.5
v 9.5 0 13.5
v 9.5 4 13.5
v -8.5 4 12.5
v -8.5 5 12.5
v -7.5 4 12.5
v -7.5 5 12.5
v 7.5 4 12.5
v 7.5 5 12.5
v 8.5 4 12.5
v 8.5 5 12.5
v -8.5 4 -0.5
v -8.5 5 -0.5
v -7.5 4 -0.5
v -7.5 5 -0.5
v 7.5 4 -0.5
v 7.5 5 -0.5
v 8.5 4 -0.5
v 8.5 5 -0.5
v -9.5 0 -1.5
v -9.5 4 -1.5
v -8.5 0 -1.5
v -8.5 4 -1.5
v -7.5 4 -1.5
v -7.5 5 -1.5
v 7.5 4 -1.5
v 7.5 5 -1.5
v 8.5 0 -1.5
v 8.5 4 -1.5
v 9.5 0 -1.5
v 9.5 4 -1.5
v -8.5 0 -2.5
v -8.5 4 -2.5
v 8.5 0 -2.5
v 8.5 4 -2.5
v -8.5 0 14.5
v 8.5 0 14.5
v -9.5 0 13.5
v -8.5 0 13.5
v 8.5 0 13.5
v 9.5 0 13.5
v -9.5 0 -1.5
v -8.5 0 -1.5
v 8.5 0 -1.5
v 9.5 0 -1.5
v -8.5 0 -2.5
v 8.5 0 -2.5
v -8.5 4 14.5
v 8.5 4 14.5
v -9.5 4 13.5
v -8.5 4 13.5
v -7.5 4 13.5
v 7.5 4 13.5
v 8.5 4 13.5
v 9.5 4 13.5
v -8.5 4 12.5
v -7.5 4 12.5
v 7.5 4 12.5
v 8.5 4 12.5
v -8.5 4 -0.5
v -7.5 4 -0.5
v 7.5 4 -0.5
v 8.5 4 -0.5
v -9.5 4 -1.5
v -8.5 4 -1.5
v -7.5 4 -1.5
v 7.5 4 -1.5
v 8.5 4 -1.5
v 9.5 4 -1.5
v -8.5 4 -2.5
v 8.5 4 -2.5
v -7.5 5 13.5
v 7.5 5 13.5
v -8.5 5 12.5
v -7.5 5 12.5
v 7.5 5 12.5
v 8.5 5 12.5
v -6.5 5 11.5
v 6.5 5 11.5
v -5.5 5 10.5
v 5.5 5 10.5
v -4.5 5 9.5
v 4.5 5 9.5
v -3.5 5 8.5
v 3.5 5 8.5
v -2.5 5 7.5
v 2.5 5 7.5
v -1.5 5 6.5
v 1.5 5 6.5
v -1.5 5 5.5
v 1.5 5 5.5
v -2.5 5 4.5
v 2.5 5 4.5
v -3.5 5 3.5
v 3.5 5 3.5
v -4.5 5 2.5
v 4.5 5 2.5
v -5.5 5 1.5
v 5.5 5 1.5
v -6.5 5 0.5
v 6.5 5 0.5
v -8.5 5 -0.5
v -7.5 5 -0.5
v 7.5 5 -0.5
v 8.5 5 -0.5
v -7.5 5 -1.5
v 7.5 5 -1.5

# faces
f 3/2/1 2/2/1 1/2/1
f 4/2/1 2/2/1 3/2/1
f 9/2/1 6/2/1 5/2/1
f 10/2/1 6/2/1 9/2/1
f 13/2/1 8/2/1 7/2/1
f 14/2/1 8/2/1 13/2/1
f 15/2/1 12/2/1 11/2/1
f 16/2/1 12/2/1 15/2/1
f 21/2/1 18/2/1 17/2/1
f 22/2/1 18/2/1 21/2/1
f 23/2/1 20/2/1 19/2/1
f 24/2/1 20/2/1 23/2/1
f 25/2/2 26/2/2 29/2/2
f 29/2/2 26/2/2 30/2/2
f 27/2/2 28/2/2 31/2/2
f 31/2/2 28/2/2 32/2/2
f 33/2/2 34/2/2 37/2/2
f 37/2/2 34/2/2 38/2/2
f 35/2/2 36/2/2 41/2/2
f 41/2/2 36/2/2 42/2/2
f 39/2/2 40/2/2 43/2/2
f 43/2/2 40/2/2 44/2/2
f 45/2/2 46/2/2 47/2/2
f 47/2/2 46/2/2 48/2/2
f 51/2/3 50/2/3 49/2/3
f 52/2/3 50/2/3 51/2/3
f 55/2/3 54/2/3 53/2/3
f 56/2/3 54/2/3 55/2/3
f 59/2/3 58/2/3 57/2/3
f 60/2/3 58/2/3 59/2/3
f 63/2/3 62/2/3 61/2/3
f 64/2/3 62/2/3 63/2/3
f 67/2/3 66/2/3 65/2/3
f 68/2/3 66/2/3 67/2/3
f 71/2/3 70/2/3 69/2/3
f 72/2/3 70/2/3 71/2/3
f 73/2/4 74/2/4 75/2/4
f 75/2/4 74/2/4 76/2/4
f 77/2/4 78/2/4 79/2/4
f 79/2/4 78/2/4 80/2/4
f 81/2/4 82/2/4 83/2/4
f 83/2/4 82/2/4 84/2/4
f 85/2/4 86/2/4 87/2/4
f 87/2/4 86/2/4 88/2/4
f 89/2/4 90/2/4 91/2/4
f 91/2/4 90/2/4 92/2/4
f 93/2/4 94/2/4 95/2/4
f 95/2/4 94/2/4 96/2/4
f 100/2/5 98/2/5 97/2/5
f 101/2/5 98/2/5 100/2/5
f 103/2/5 100/2/5 99/2/5
f 103/2/5 102/2/5 101/2/5
f 103/2/5 101/2/5 100/2/5
f 104/2/5 102/2/5 103/2/5
f 105/2/5 102/2/5 104/2/5
f 106/2/5 102/2/5 105/2/5
f 107/2/5 105/2/5 104/2/5
f 108/2/5 105/2/5 107/2/5
f 109/2/6 110/2/6 112/2/6
f 112/2/6 110/2/6 113/2/6
f 113/2/6 110/2/6 114/2/6
f 114/2/6 110/2/6 115/2/6
f 111/2/6 112/2/6 117/2/6
f 112/2/6 113/2/6 117/2/6
f 117/2/6 113/2/6 118/2/6
f 115/2/6 116/2/6 119/2/6
f 114/2/6 115/2/6 119/2/6
f 119/2/6 116/2/6 120/2/6
f 111/2/6 117/2/6 121/2/6
f 120/2/6 116/2/6 124/2/6
f 121/2/6 122/2/6 125/2/6
f 111/2/6 121/2/6 125/2/6
f 125/2/6 122/2/6 126/2/6
f 126/2/6 122/2/6 127/2/6
f 123/2/6 124/2/6 128/2/6
f 124/2/6 116/2/6 129/2/6
f 128/2/6 124/2/6 129/2/6
f 129/2/6 116/2/6 130/2/6
f 126/2/6 127/2/6 131/2/6
f 127/2/6 128/2/6 131/2/6
f 128/2/6 129/2/6 131/2/6
f 131/2/6 129/2/6 132/2/6
f 133/2/6 134/2/6 136/2/6
f 136/2/6 134/2/6 137/2/6
f 135/2/6 136/2/6 139/2/6
f 137/2/6 138/2/6 139/2/6
f 136/2/6 137/2/6 139/2/6
f 139/2/6 138/2/6 140/2/6
f 139/1/6 140/1/6 141/1/6
f 141/1/6 140/1/6 142/1/6
f 141/2/6 142/2/6 143/2/6
f 143/2/6 142/2/6 144/2/6
f 143/1/6 144/1/6 145/1/6
f 145/1/6 144/1/6 146/1/6
f 145/2/6 146/2/6 147/2/6
f 147/2/6 146/2/6 148/2/6
f 147/1/6 148/1/6 149/1/6
f 149/1/6 148/1/6 150/1/6
f 147/1/6 149/1/6 151/1/6
f 149/2/6 150/2/6 151/2/6
f 150/1/6 148/1/6 152/1/6
f 151/2/6 150/2/6 152/2/6
f 145/2/6 147/2/6 153/2/6
f 147/1/6 151/1/6 153/1/6
f 151/1/6 152/1/6 153/1/6
f 152/1/6 148/1/6 154/1/6
f 153/1/6 152/1/6 154/1/6
f 148/2/6 146/2/6 154/2/6
f 143/1/6 145/1/6 155/1/6
f 145/2/6 153/2/6 155/2/6
f 153/2/6 154/2/6 155/2/6
f 154/2/6 146/2/6 156/2/6
f 155/2/6 154/2/6 156/2/6
f 146/1/6 144/1/6 156/1/6
f 141/2/6 143/2/6 157/2/6
f 143/1/6 155/1/6 157/1/6
f 155/1/6 156/1/6 157/1/6
f 156/1/6 144/1/6 158/1/6
f 157/1/6 156/1/6 158/1/6
f 144/2/6 142/2/6 158/2/6
f 139/1/6 141/1/6 159/1/6
f 141/2/6 157/2/6 159/2/6
f 157/2/6 158/2/6 159/2/6
f 158/2/6 142/2/6 160/2/6
f 159/2/6 158/2/6 160/2/6
f 142/1/6 140/1/6 160/1/6
f 135/2/6 139/2/6 161/2/6
f 139/1/6 159/1/6 161/1/6
f 159/1/6 160/1/6 161/1/6
f 160/1/6 140/1/6 162/1/6
f 161/1/6 160/1/6 162/1/6
f 140/2/6 138/2/6 162/2/6
f 135/2/6 161/2/6 163/2/6
f 161/2/6 162/2/6 163/2/6
f 163/2/6 162/2/6 164/2/6
f 162/2/6 138/2/6 165/2/6
f 164/2/6 162/2/6 165/2/6
f 165/2/6 138/2/6 166/2/6
f 164/2/6 165/2/6 167/2/6
f 167/2/6 165/2/6 168/2/6
