# MagicaVoxel @ ephtracy

# material
mtllib floor01.mtl
usemtl palette

# normals
vn -1 0 0
vn 1 0 0
vn 0 0 1
vn 0 0 -1
vn 0 -1 0
vn 0 1 0

# texcoords
vt 0.548828 0.5
vt 0.552734 0.5
vt 0.927734 0.5

# verts
v -18.5 15 14.5
v -18.5 15 -14.5
v -18.5 22 14.5
v -18.5 22 -14.5
v -17.5 0 15.5
v -17.5 0 -14.5
v -17.5 14 -13.5
v -17.5 14 -14.5
v -17.5 15 15.5
v -17.5 15 14.5
v -17.5 15 -13.5
v -17.5 15 -14.5
v -17.5 15 -15.5
v -17.5 22 15.5
v -17.5 22 14.5
v -17.5 22 -14.5
v -17.5 22 -15.5
v -16.5 15 17.5
v -16.5 15 15.5
v -16.5 15 -15.5
v -16.5 15 -16.5
v -16.5 22 17.5
v -16.5 22 15.5
v -16.5 22 -15.5
v -16.5 22 -16.5
v 16.5 15 17.5
v 16.5 15 15.5
v 16.5 15 -15.5
v 16.5 15 -16.5
v 16.5 22 17.5
v 16.5 22 15.5
v 16.5 22 -15.5
v 16.5 22 -16.5
v 17.5 0 15.5
v 17.5 0 -14.5
v 17.5 14 -13.5
v 17.5 14 -14.5
v 17.5 15 15.5
v 17.5 15 14.5
v 17.5 15 -13.5
v 17.5 15 -14.5
v 17.5 15 -15.5
v 17.5 22 15.5
v 17.5 22 14.5
v 17.5 22 -14.5
v 17.5 22 -15.5
v 18.5 15 14.5
v 18.5 15 -14.5
v 18.5 22 14.5
v 18.5 22 -14.5
v -16.5 15 17.5
v -16.5 22 17.5
v 16.5 15 17.5
v 16.5 22 17.5
v -17.5 0 15.5
v -17.5 15 15.5
v -17.5 22 15.5
v -16.5 15 15.5
v -16.5 22 15.5
v 16.5 15 15.5
v 16.5 22 15.5
v 17.5 0 15.5
v 17.5 15 15.5
v 17.5 22 15.5
v -18.5 15 14.5
v -18.5 22 14.5
v -17.5 15 14.5
v -17.5 22 14.5
v 17.5 15 14.5
v 17.5 22 14.5
v 18.5 15 14.5
v 18.5 22 14.5
v -17.5 14 -13.5
v -17.5 15 -13.5
v -16.5 14 -13.5
v -16.5 15 -13.5
v 16.5 14 -13.5
v 16.5 15 -13.5
v 17.5 14 -13.5
v 17.5 15 -13.5
v -18.5 15 -14.5
v -18.5 22 -14.5
v -17.5 0 -14.5
v -17.5 14 -14.5
v -17.5 15 -14.5
v -17.5 22 -14.5
v 17.5 0 -14.5
v 17.5 14 -14.5
v 17.5 15 -14.5
v 17.5 22 -14.5
v 18.5 15 -14.5
v 18.5 22 -14.5
v -17.5 15 -15.5
v -17.5 22 -15.5
v -16.5 15 -15.5
v -16.5 22 -15.5
v 16.5 15 -15.5
v 16.5 22 -15.5
v 17.5 15 -15.5
v 17.5 22 -15.5
v -16.5 15 -16.5
v -16.5 22 -16.5
v 16.5 15 -16.5
v 16.5 22 -16.5
v -17.5 0 15.5
v 17.5 0 15.5
v -16.5 0 14.5
v 16.5 0 14.5
v -16.5 0 -13.5
v 16.5 0 -13.5
v -17.5 0 -14.5
v 17.5 0 -14.5
v -16.5 15 17.5
v 16.5 15 17.5
v -16.5 15 15.5
v 16.5 15 15.5
v -18.5 15 14.5
v -17.5 15 14.5
v 17.5 15 14.5
v 18.5 15 14.5
v -17.5 15 -13.5
v -16.5 15 -13.5
v 16.5 15 -13.5
v 17.5 15 -13.5
v -18.5 15 -14.5
v -17.5 15 -14.5
v 17.5 15 -14.5
v 18.5 15 -14.5
v -17.5 15 -15.5
v -16.5 15 -15.5
v 16.5 15 -15.5
v 17.5 15 -15.5
v -16.5 15 -16.5
v 16.5 15 -16.5
v -17.5 14 -13.5
v -16.5 14 -13.5
v 16.5 14 -13.5
v 17.5 14 -13.5
v -17.5 14 -14.5
v 17.5 14 -14.5
v -16.5 22 17.5
v 16.5 22 17.5
v -17.5 22 15.5
v -16.5 22 15.5
v 16.5 22 15.5
v 17.5 22 15.5
v -18.5 22 14.5
v -17.5 22 14.5
v 17.5 22 14.5
v 18.5 22 14.5
v -18.5 22 -14.5
v -17.5 22 -14.5
v 17.5 22 -14.5
v 18.5 22 -14.5
v -17.5 22 -15.5
v -16.5 22 -15.5
v 16.5 22 -15.5
v 17.5 22 -15.5
v -16.5 22 -16.5
v 16.5 22 -16.5

# faces
f 3/3/1 2/3/1 1/3/1
f 4/3/1 2/3/1 3/3/1
f 7/1/1 6/1/1 5/1/1
f 8/1/1 6/1/1 7/1/1
f 9/1/1 7/1/1 5/1/1
f 10/1/1 7/1/1 9/1/1
f 11/1/1 7/1/1 10/1/1
f 14/3/1 10/3/1 9/3/1
f 15/3/1 10/3/1 14/3/1
f 16/3/1 13/3/1 12/3/1
f 17/3/1 13/3/1 16/3/1
f 22/3/1 19/3/1 18/3/1
f 23/3/1 19/3/1 22/3/1
f 24/3/1 21/3/1 20/3/1
f 25/3/1 21/3/1 24/3/1
f 26/3/2 27/3/2 30/3/2
f 30/3/2 27/3/2 31/3/2
f 28/3/2 29/3/2 32/3/2
f 32/3/2 29/3/2 33/3/2
f 34/1/2 35/1/2 36/1/2
f 36/1/2 35/1/2 37/1/2
f 34/1/2 36/1/2 38/1/2
f 38/1/2 36/1/2 39/1/2
f 39/1/2 36/1/2 40/1/2
f 38/3/2 39/3/2 43/3/2
f 43/3/2 39/3/2 44/3/2
f 41/3/2 42/3/2 45/3/2
f 45/3/2 42/3/2 46/3/2
f 47/3/2 48/3/2 49/3/2
f 49/3/2 48/3/2 50/3/2
f 53/3/3 52/3/3 51/3/3
f 54/3/3 52/3/3 53/3/3
f 58/1/3 56/1/3 55/1/3
f 58/3/3 57/3/3 56/3/3
f 59/3/3 57/3/3 58/3/3
f 60/1/3 58/1/3 55/1/3
f 62/1/3 60/1/3 55/1/3
f 63/3/3 61/3/3 60/3/3
f 63/1/3 60/1/3 62/1/3
f 64/3/3 61/3/3 63/3/3
f 67/3/3 66/3/3 65/3/3
f 68/3/3 66/3/3 67/3/3
f 71/3/3 70/3/3 69/3/3
f 72/3/3 70/3/3 71/3/3
f 73/1/4 74/1/4 75/1/4
f 75/1/4 74/1/4 76/1/4
f 75/2/4 76/2/4 77/2/4
f 77/2/4 76/2/4 78/2/4
f 77/1/4 78/1/4 79/1/4
f 79/1/4 78/1/4 80/1/4
f 81/3/4 82/3/4 85/3/4
f 85/3/4 82/3/4 86/3/4
f 83/1/4 84/1/4 87/1/4
f 87/1/4 84/1/4 88/1/4
f 89/3/4 90/3/4 91/3/4
f 91/3/4 90/3/4 92/3/4
f 93/3/4 94/3/4 95/3/4
f 95/3/4 94/3/4 96/3/4
f 97/3/4 98/3/4 99/3/4
f 99/3/4 98/3/4 100/3/4
f 101/3/4 102/3/4 103/3/4
f 103/3/4 102/3/4 104/3/4
f 107/1/5 106/1/5 105/1/5
f 108/1/5 106/1/5 107/1/5
f 109/1/5 107/1/5 105/1/5
f 109/2/5 108/2/5 107/2/5
f 110/1/5 106/1/5 108/1/5
f 110/2/5 108/2/5 109/2/5
f 111/1/5 109/1/5 105/1/5
f 111/1/5 110/1/5 109/1/5
f 112/1/5 106/1/5 110/1/5
f 112/1/5 110/1/5 111/1/5
f 115/3/5 114/3/5 113/3/5
f 116/3/5 114/3/5 115/3/5
f 121/3/5 118/3/5 117/3/5
f 124/3/5 120/3/5 119/3/5
f 125/3/5 123/3/5 122/3/5
f 125/3/5 124/3/5 123/3/5
f 125/3/5 121/3/5 117/3/5
f 125/3/5 122/3/5 121/3/5
f 126/3/5 124/3/5 125/3/5
f 127/3/5 120/3/5 124/3/5
f 127/3/5 124/3/5 126/3/5
f 128/3/5 120/3/5 127/3/5
f 129/3/5 127/3/5 126/3/5
f 130/3/5 127/3/5 129/3/5
f 131/3/5 127/3/5 130/3/5
f 132/3/5 127/3/5 131/3/5
f 133/3/5 131/3/5 130/3/5
f 134/3/5 131/3/5 133/3/5
f 135/1/6 136/1/6 139/1/6
f 137/1/6 138/1/6 139/1/6
f 136/1/6 137/1/6 139/1/6
f 139/1/6 138/1/6 140/1/6
f 141/3/6 142/3/6 144/3/6
f 144/3/6 142/3/6 145/3/6
f 143/3/6 144/3/6 148/3/6
f 145/3/6 146/3/6 148/3/6
f 144/3/6 145/3/6 148/3/6
f 148/3/6 146/3/6 149/3/6
f 147/3/6 148/3/6 151/3/6
f 149/3/6 150/3/6 151/3/6
f 148/3/6 149/3/6 151/3/6
f 151/3/6 150/3/6 152/3/6
f 152/3/6 150/3/6 153/3/6
f 153/3/6 150/3/6 154/3/6
f 152/3/6 153/3/6 155/3/6
f 155/3/6 153/3/6 156/3/6
f 156/3/6 153/3/6 157/3/6
f 157/3/6 153/3/6 158/3/6
f 156/3/6 157/3/6 159/3/6
f 159/3/6 157/3/6 160/3/6
